<!DOCTYPE svg PUBLIC "-//W3C//DTD SVG 20010904//EN" "http://www.w3.org/TR/2001/REC-SVG-20010904/DTD/svg10.dtd">
<svg version="1.0" xmlns="http://www.w3.org/2000/svg" width="1600px" height="1600px" viewBox="0 0 16000 16000" preserveAspectRatio="xMidYMid meet">
<g id="layer101" fill="#15232d" stroke="none">
 <path d="M9124 14208 c-3 -5 -22 -8 -42 -7 -41 1 -267 -17 -267 -22 0 -2 -20 -5 -80 -13 -22 -3 -62 -10 -90 -15 -27 -6 -75 -16 -105 -22 -129 -25 -382 -100 -407 -121 -8 -6 -39 -12 -69 -14 -31 -1 -58 -5 -62 -8 -3 -4 -96 -6 -206 -6 -214 1 -259 -2 -346 -27 -106 -29 -173 -69 -339 -202 -191 -154 -217 -174 -271 -209 -150 -99 -189 -98 -494 12 -103 37 -199 61 -228 57 -9 -1 -19 3 -23 9 -8 12 -39 13 -63 1 -9 -5 -39 -13 -67 -19 -48 -10 -206 -65 -291 -103 -23 -10 -54 -21 -70 -25 -15 -4 -39 -13 -53 -20 -14 -8 -34 -14 -43 -14 -9 0 -20 -4 -23 -10 -3 -5 -19 -10 -35 -10 -16 0 -31 -4 -34 -9 -3 -4 -47 -23 -98 -41 -51 -18 -97 -36 -103 -40 -5 -4 -21 -11 -35 -15 -53 -17 -263 -116 -370 -176 -156 -87 -221 -143 -351 -299 -29 -36 -96 -110 -149 -165 -142 -148 -219 -247 -278 -357 -42 -79 -62 -148 -78 -272 -13 -99 -13 -119 1 -191 9 -44 23 -94 31 -112 8 -17 14 -34 14 -38 0 -4 29 -67 65 -140 89 -181 138 -320 106 -301 -22 14 -457 -406 -673 -649 -177 -199 -487 -595 -632 -807 -12 -18 -46 -67 -75 -108 -57 -81 -163 -241 -256 -385 -32 -49 -81 -126 -110 -170 -28 -44 -73 -116 -100 -160 -88 -145 -226 -316 -366 -455 -56 -56 -137 -154 -242 -295 -53 -71 -102 -136 -109 -144 -12 -15 -17 -23 -89 -161 -82 -155 -141 -314 -165 -440 -34 -183 -34 -354 1 -535 2 -11 6 -33 9 -50 6 -37 18 -96 41 -195 9 -41 19 -84 21 -95 2 -11 8 -38 14 -60 6 -22 13 -49 15 -60 5 -23 11 -44 53 -200 48 -178 92 -329 102 -350 5 -11 14 -40 20 -65 6 -25 15 -55 20 -67 24 -57 30 -73 55 -146 25 -77 35 -102 61 -162 7 -16 16 -43 20 -60 4 -16 10 -34 14 -40 4 -5 13 -26 20 -45 14 -37 19 -49 71 -170 64 -149 132 -298 185 -403 24 -48 44 -94 44 -102 0 -7 6 -18 13 -22 6 -4 22 -28 35 -53 156 -312 425 -729 686 -1065 142 -182 383 -453 501 -564 60 -56 192 -151 210 -151 4 0 19 -8 33 -18 15 -10 54 -29 87 -42 33 -13 65 -26 70 -30 6 -4 35 -13 65 -20 30 -7 63 -17 74 -22 10 -6 37 -12 60 -14 22 -3 55 -9 71 -14 30 -9 99 -21 145 -25 14 -2 70 -8 125 -14 55 -7 141 -13 190 -15 86 -3 196 -30 290 -71 17 -8 68 -29 115 -48 104 -43 216 -94 524 -241 76 -36 140 -66 143 -66 4 0 30 -11 118 -50 11 -5 56 -21 100 -35 44 -15 89 -30 100 -35 56 -23 277 -100 325 -114 187 -53 229 -58 405 -56 197 4 200 4 385 57 180 51 434 192 585 323 17 15 60 39 96 54 37 15 128 58 204 97 76 38 146 69 156 69 10 0 21 5 24 10 8 12 80 46 120 56 17 4 35 10 40 13 16 11 76 29 137 41 37 7 123 9 255 5 559 -17 845 -2 1073 55 96 24 290 90 365 124 127 58 721 263 975 336 41 12 82 24 90 28 8 3 20 7 25 7 6 1 17 4 25 8 8 3 24 7 35 10 11 3 73 21 137 41 64 20 125 36 135 36 11 0 23 4 28 9 6 5 35 16 65 25 30 8 80 22 110 31 30 9 84 25 120 34 36 10 72 20 80 24 8 4 33 11 55 16 52 13 117 32 240 71 143 46 196 61 230 67 17 3 35 9 40 13 6 5 37 16 70 25 33 9 69 20 80 25 48 20 112 40 127 40 18 0 62 27 287 176 375 248 747 553 1165 954 373 357 422 409 591 634 33 44 68 89 77 100 10 12 57 68 105 126 47 58 118 141 157 186 372 425 578 710 722 994 45 89 85 198 144 395 5 17 16 84 25 150 13 105 15 413 15 2536 0 2021 -2 2420 -14 2431 -14 14 -138 106 -165 123 -9 5 -38 24 -66 41 -130 81 -303 160 -445 204 -58 17 -116 36 -130 40 -31 11 -218 49 -268 55 -87 10 -333 56 -407 75 -22 6 -49 13 -60 15 -11 2 -47 11 -80 19 -33 8 -89 22 -125 31 -36 9 -76 20 -90 25 -14 4 -59 18 -100 30 -91 26 -160 49 -180 60 -9 4 -31 11 -50 15 -19 4 -41 11 -50 15 -8 5 -44 18 -80 30 -36 12 -74 26 -85 30 -11 5 -31 12 -45 15 -14 4 -41 14 -60 22 -44 19 -56 24 -159 63 -46 17 -91 35 -100 39 -9 5 -41 17 -71 26 -30 10 -59 22 -65 26 -5 5 -15 9 -23 9 -8 0 -28 6 -45 14 -18 8 -102 43 -187 76 -85 34 -168 68 -185 76 -54 24 -382 147 -560 210 -38 13 -74 29 -79 34 -6 6 -19 10 -30 10 -12 0 -66 16 -121 36 -55 20 -120 42 -145 49 -25 7 -70 21 -100 30 -49 15 -151 43 -236 64 -18 5 -37 12 -43 15 -6 4 -28 10 -49 12 -20 3 -75 14 -122 25 -47 12 -94 22 -105 24 -23 4 -167 31 -270 50 -75 14 -203 38 -300 55 -33 6 -80 13 -105 16 -25 3 -56 7 -70 9 -85 11 -203 26 -249 31 -30 3 -58 7 -61 9 -10 6 -198 18 -248 16 -23 -1 -48 2 -55 6 -17 11 -587 12 -593 1z"/>
 </g>
<g id="layer102" fill="#0f4162" stroke="none">
 <path d="M9124 14208 c-3 -5 -22 -8 -42 -7 -41 1 -267 -17 -267 -22 0 -2 -20 -5 -80 -13 -22 -3 -62 -10 -90 -15 -27 -6 -75 -16 -105 -22 -129 -25 -382 -100 -407 -121 -8 -6 -39 -12 -69 -14 -31 -1 -58 -5 -62 -8 -3 -4 -96 -6 -206 -6 -214 1 -259 -2 -346 -27 -106 -29 -173 -69 -339 -202 -191 -154 -217 -174 -271 -209 -150 -99 -189 -98 -494 12 -103 37 -199 61 -228 57 -9 -1 -19 3 -23 9 -8 12 -39 13 -63 1 -9 -5 -39 -13 -67 -19 -48 -10 -206 -65 -291 -103 -23 -10 -54 -21 -70 -25 -15 -4 -39 -13 -53 -20 -14 -8 -34 -14 -43 -14 -9 0 -20 -4 -23 -10 -3 -5 -19 -10 -35 -10 -16 0 -31 -4 -34 -9 -3 -4 -47 -23 -98 -41 -51 -18 -97 -36 -103 -40 -5 -4 -21 -11 -35 -15 -53 -17 -263 -116 -370 -176 -156 -87 -221 -143 -351 -299 -29 -36 -96 -110 -149 -165 -142 -148 -219 -247 -278 -357 -42 -79 -62 -148 -78 -272 -13 -99 -13 -119 1 -191 9 -44 23 -94 31 -112 8 -17 14 -34 14 -38 0 -4 29 -67 65 -140 89 -181 138 -320 106 -301 -22 14 -457 -406 -673 -649 -177 -199 -487 -595 -632 -807 -12 -18 -46 -67 -75 -108 -57 -81 -163 -241 -256 -385 -32 -49 -81 -126 -110 -170 -28 -44 -73 -116 -100 -160 -88 -145 -226 -316 -366 -455 -56 -56 -137 -154 -242 -295 -53 -71 -102 -136 -109 -144 -12 -15 -17 -23 -89 -161 -82 -155 -141 -314 -165 -440 -34 -183 -34 -354 1 -535 2 -11 6 -33 9 -50 6 -37 18 -96 41 -195 9 -41 19 -84 21 -95 2 -11 8 -38 14 -60 6 -22 13 -49 15 -60 5 -23 11 -44 53 -200 48 -178 92 -329 102 -350 5 -11 14 -40 20 -65 6 -25 15 -55 20 -67 24 -57 30 -73 55 -146 25 -77 35 -102 61 -162 7 -16 16 -43 20 -60 4 -16 10 -34 14 -40 4 -5 13 -26 20 -45 14 -37 19 -49 71 -170 64 -149 132 -298 185 -403 24 -48 44 -94 44 -102 0 -7 6 -18 13 -22 6 -4 22 -28 35 -53 156 -312 425 -729 686 -1065 142 -182 383 -453 501 -564 60 -56 192 -151 210 -151 4 0 19 -8 33 -18 15 -10 54 -29 87 -42 33 -13 65 -26 70 -30 6 -4 35 -13 65 -20 30 -7 63 -17 74 -22 10 -6 37 -12 60 -14 22 -3 55 -9 71 -14 30 -9 99 -21 145 -25 14 -2 72 -8 130 -15 136 -15 244 -17 249 -6 5 14 -145 95 -349 187 -267 120 -455 233 -556 333 -61 62 -152 181 -178 233 -10 21 -22 45 -27 53 -20 34 -39 83 -34 88 3 3 1 10 -3 16 -23 31 -52 181 -52 265 1 109 48 318 91 403 88 172 267 357 371 383 15 4 32 13 39 21 6 8 21 14 32 14 11 0 28 6 36 14 9 7 34 18 56 24 142 36 271 79 372 124 24 10 49 18 56 18 7 0 32 9 55 20 22 11 49 20 58 20 10 0 25 6 33 14 9 7 43 21 76 30 33 9 74 22 90 27 30 11 58 17 105 24 14 2 54 9 90 15 174 30 352 -40 470 -184 25 -31 48 -52 53 -47 4 4 0 30 -10 57 -26 74 -23 219 6 309 13 39 27 75 31 80 3 6 15 33 25 60 19 53 59 129 100 195 124 197 286 315 480 351 62 12 277 16 365 7 128 -13 275 -94 391 -214 80 -84 119 -141 160 -231 56 -125 67 -156 73 -203 3 -19 9 -56 14 -83 6 -29 6 -50 0 -53 -5 -4 -5 -10 0 -17 10 -13 13 -44 5 -67 -2 -8 -6 -40 -8 -71 -3 -53 -10 -85 -41 -171 -26 -72 -150 -247 -185 -260 -11 -4 -19 -14 -19 -22 0 -20 -112 -103 -186 -138 -109 -51 -186 -62 -454 -62 -132 0 -243 13 -282 35 -10 5 -25 9 -33 9 -22 0 -86 34 -123 65 -39 33 -48 18 -23 -37 11 -24 32 -72 46 -108 42 -103 85 -183 113 -213 35 -37 151 -106 227 -135 33 -13 67 -27 76 -32 49 -26 254 -41 329 -25 132 29 225 133 460 510 214 344 301 464 426 589 70 70 208 176 229 176 3 0 24 9 48 19 70 31 138 49 222 57 64 6 220 9 220 4 0 0 27 -3 60 -5 72 -6 110 -18 227 -75 193 -94 340 -292 429 -580 22 -70 17 -202 -10 -285 -13 -38 -29 -79 -36 -90 -6 -11 -20 -45 -30 -75 -21 -65 -126 -284 -170 -355 -17 -27 -39 -67 -48 -87 -10 -20 -22 -40 -28 -44 -6 -3 -14 -17 -19 -30 -21 -54 -207 -324 -339 -493 -123 -156 -159 -199 -336 -405 -194 -227 -216 -254 -205 -261 11 -7 125 43 288 127 63 32 122 58 132 58 10 0 22 5 25 10 8 12 80 46 120 56 17 4 35 10 40 13 16 11 76 29 137 41 37 7 123 9 255 5 559 -17 845 -2 1073 55 96 24 290 90 365 124 127 58 721 263 975 336 41 12 82 24 90 28 8 3 20 7 25 7 6 1 17 4 25 8 8 3 24 7 35 10 11 3 73 21 137 41 64 20 125 36 135 36 11 0 23 4 28 9 6 5 35 16 65 25 30 8 80 22 110 31 30 9 84 25 120 34 36 10 72 20 80 24 8 4 33 11 55 16 52 13 117 32 240 71 143 46 196 61 230 67 17 3 35 9 40 13 6 5 37 16 70 25 33 9 69 20 80 25 48 20 112 40 127 40 18 0 62 27 287 176 375 248 747 553 1165 954 373 357 422 409 591 634 33 44 68 89 77 100 10 12 57 68 105 126 47 58 118 141 157 186 372 425 578 710 722 994 45 89 85 198 144 395 5 17 16 84 25 150 13 105 15 413 15 2536 0 2021 -2 2420 -14 2431 -14 14 -138 106 -165 123 -9 5 -38 24 -66 41 -130 81 -303 160 -445 204 -58 17 -116 36 -130 40 -31 11 -218 49 -268 55 -87 10 -333 56 -407 75 -22 6 -49 13 -60 15 -11 2 -47 11 -80 19 -33 8 -89 22 -125 31 -36 9 -76 20 -90 25 -14 4 -59 18 -100 30 -91 26 -160 49 -180 60 -9 4 -31 11 -50 15 -19 4 -41 11 -50 15 -8 5 -44 18 -80 30 -36 12 -74 26 -85 30 -11 5 -31 12 -45 15 -14 4 -41 14 -60 22 -44 19 -56 24 -159 63 -46 17 -91 35 -100 39 -9 5 -41 17 -71 26 -30 10 -59 22 -65 26 -5 5 -15 9 -23 9 -8 0 -28 6 -45 14 -18 8 -102 43 -187 76 -85 34 -168 68 -185 76 -54 24 -382 147 -560 210 -38 13 -74 29 -79 34 -6 6 -19 10 -30 10 -12 0 -66 16 -121 36 -55 20 -120 42 -145 49 -25 7 -70 21 -100 30 -49 15 -151 43 -236 64 -18 5 -37 12 -43 15 -6 4 -28 10 -49 12 -20 3 -75 14 -122 25 -47 12 -94 22 -105 24 -23 4 -167 31 -270 50 -75 14 -203 38 -300 55 -33 6 -80 13 -105 16 -25 3 -56 7 -70 9 -85 11 -203 26 -249 31 -30 3 -58 7 -61 9 -10 6 -198 18 -248 16 -23 -1 -48 2 -55 6 -17 11 -587 12 -593 1z m5744 -2568 c24 -6 63 -12 87 -15 136 -14 314 -106 435 -225 137 -134 217 -293 241 -481 38 -298 -81 -570 -335 -763 -77 -59 -181 -118 -236 -134 -19 -6 -93 -31 -165 -57 -71 -25 -170 -60 -220 -77 -49 -16 -108 -38 -130 -48 -22 -9 -51 -21 -65 -24 -14 -4 -34 -11 -45 -16 -11 -4 -47 -18 -80 -30 -33 -12 -69 -26 -80 -30 -11 -5 -37 -14 -58 -20 -22 -7 -51 -18 -65 -26 -15 -8 -34 -14 -43 -14 -9 0 -19 -3 -22 -6 -4 -4 -28 -15 -54 -24 -81 -29 -317 -120 -338 -130 -11 -5 -51 -21 -90 -35 -38 -14 -83 -32 -100 -40 -16 -7 -75 -30 -130 -50 -55 -19 -114 -42 -132 -50 -17 -8 -35 -15 -40 -15 -4 0 -24 -8 -43 -19 -19 -10 -53 -24 -75 -31 -22 -7 -44 -16 -50 -20 -12 -9 -156 -58 -265 -89 -41 -12 -85 -26 -98 -32 -13 -5 -32 -9 -43 -9 -11 0 -30 -7 -43 -15 -13 -9 -28 -15 -32 -14 -5 1 -16 -1 -24 -4 -8 -4 -53 -17 -100 -31 -47 -13 -112 -33 -145 -44 -33 -11 -114 -37 -180 -57 -66 -21 -151 -48 -190 -60 -148 -48 -202 -64 -245 -75 -25 -6 -58 -17 -75 -25 -33 -15 -221 -77 -245 -80 -8 -1 -22 -5 -30 -8 -21 -9 -314 -104 -525 -172 -204 -65 -261 -84 -290 -95 -57 -23 -105 -39 -155 -50 -30 -7 -59 -16 -65 -20 -5 -4 -26 -11 -45 -15 -19 -4 -41 -11 -50 -16 -21 -12 -217 -75 -260 -84 -19 -4 -39 -11 -45 -15 -5 -4 -26 -11 -45 -15 -19 -4 -41 -11 -50 -16 -20 -12 -273 -95 -330 -109 -25 -6 -54 -15 -65 -20 -11 -4 -42 -16 -70 -25 -27 -10 -59 -21 -70 -26 -50 -21 -174 -59 -193 -59 -11 0 -23 -4 -26 -9 -3 -5 -22 -12 -42 -16 -20 -3 -44 -11 -53 -16 -28 -16 -257 -89 -279 -89 -11 0 -23 -4 -26 -9 -3 -5 -45 -21 -93 -36 -49 -15 -126 -40 -173 -55 -47 -15 -179 -58 -295 -95 -115 -37 -227 -73 -248 -81 -20 -8 -41 -13 -45 -12 -4 0 -14 -2 -22 -5 -51 -21 -228 -77 -246 -77 -11 0 -24 -4 -30 -8 -8 -8 -147 -55 -169 -58 -5 0 -17 -4 -25 -7 -32 -13 -146 -49 -165 -52 -36 -7 -284 -78 -365 -106 -56 -19 -93 -28 -280 -73 -171 -41 -191 -46 -270 -53 -41 -5 -151 -8 -245 -7 -164 1 -174 2 -265 33 -176 60 -308 145 -412 269 -72 84 -136 229 -156 352 -9 49 -8 257 0 305 11 62 57 199 84 251 88 165 232 304 391 375 36 17 77 32 92 35 14 2 46 9 71 14 56 13 83 19 112 25 22 4 278 69 398 101 30 8 64 17 75 19 11 2 49 13 84 24 35 12 66 19 69 16 2 -2 14 1 25 7 11 6 68 24 126 40 58 16 129 36 156 45 28 8 65 17 83 20 18 3 35 9 38 14 3 5 14 9 25 9 10 0 27 4 37 9 9 5 51 19 92 31 41 12 102 30 135 41 79 27 134 44 225 69 41 12 84 25 95 30 11 5 63 23 115 40 52 17 104 35 115 40 50 22 296 100 314 100 11 0 22 4 25 9 4 5 24 12 46 16 22 4 42 10 45 15 3 4 21 11 41 15 20 3 44 10 53 15 9 5 59 23 111 40 52 18 104 35 115 40 24 11 308 104 575 190 303 97 374 121 390 129 9 5 31 12 50 16 19 4 40 11 45 15 6 4 26 11 45 15 19 4 41 11 50 16 27 15 256 89 277 89 10 0 23 4 28 8 6 5 57 23 115 41 58 18 122 39 143 47 20 8 41 13 45 12 4 -1 18 3 32 9 31 14 130 45 150 48 8 1 26 7 40 13 42 18 128 42 149 42 11 0 23 5 26 10 3 6 15 10 26 10 10 0 27 4 37 9 9 6 51 19 92 31 41 12 85 25 98 31 13 5 32 9 43 9 11 0 30 6 42 14 12 7 45 19 72 25 28 6 73 20 100 31 28 11 79 26 115 35 36 9 79 22 95 30 34 15 137 48 205 65 25 6 54 15 65 19 54 24 108 41 113 37 2 -3 14 1 26 9 11 8 33 15 48 15 15 0 29 4 32 9 4 5 24 12 46 16 22 4 42 10 45 15 3 4 21 11 41 15 20 3 46 12 58 20 12 7 48 21 81 30 33 10 74 24 90 31 17 7 71 26 120 42 50 17 104 36 120 42 52 21 68 27 135 51 36 12 69 26 74 31 6 4 16 8 23 8 11 0 258 93 318 120 82 37 115 50 125 50 5 0 18 4 28 9 9 5 55 23 102 41 47 18 103 41 125 50 22 10 69 28 105 41 36 12 70 25 75 29 6 4 39 17 75 30 36 13 76 30 90 37 14 7 31 13 38 13 8 0 43 14 79 30 35 17 71 30 78 30 8 0 17 5 20 10 3 6 17 10 31 10 14 0 35 6 47 14 20 13 65 28 252 86 110 34 168 51 190 55 180 35 287 42 363 25z m-3654 -3726 c183 -37 369 -158 488 -319 64 -87 104 -154 118 -200 7 -22 17 -46 23 -53 5 -7 7 -15 4 -19 -4 -3 -2 -12 4 -20 7 -7 14 -23 16 -36 17 -103 23 -167 22 -260 -1 -59 1 -110 4 -113 8 -8 295 -50 397 -58 30 -3 105 -13 220 -31 247 -38 409 -115 551 -262 50 -51 129 -154 129 -168 0 -2 13 -26 29 -52 52 -84 89 -216 89 -313 1 -115 -46 -306 -84 -351 -8 -8 -14 -21 -14 -28 0 -27 -98 -159 -175 -237 -67 -67 -180 -154 -201 -154 -3 0 -18 -9 -33 -20 -40 -27 -158 -69 -251 -88 -14 -2 -173 -7 -355 -9 -313 -4 -334 -3 -409 17 -44 12 -97 33 -118 46 -21 14 -51 27 -66 29 -15 3 -169 7 -342 10 -173 3 -324 5 -335 5 -11 0 -45 5 -75 10 -52 9 -147 21 -180 22 -8 0 -31 4 -51 9 -20 5 -56 11 -80 14 -24 3 -55 7 -69 9 -33 4 -136 23 -230 42 -41 9 -90 18 -109 20 -18 2 -41 9 -51 14 -9 5 -20 7 -22 4 -3 -2 -27 0 -54 7 -27 6 -83 17 -124 24 -41 8 -115 21 -165 30 -49 9 -101 18 -115 19 -14 2 -34 6 -45 9 -19 7 -104 18 -135 19 -8 0 -34 4 -58 9 -42 9 -151 21 -182 21 -8 0 -49 4 -90 8 -41 5 -106 12 -144 14 -198 15 -419 147 -560 334 -102 135 -152 249 -181 414 -19 106 -19 145 0 238 9 41 17 82 18 90 10 64 91 212 164 297 41 48 172 163 186 163 4 0 27 13 53 29 25 17 60 33 77 37 17 3 38 10 47 14 97 47 386 73 570 49 41 -5 107 -12 145 -15 39 -3 86 -7 105 -9 205 -23 276 -28 405 -28 83 0 170 4 195 9 l45 9 26 75 c22 67 38 106 69 175 5 11 12 30 15 42 12 42 88 148 159 221 91 94 236 192 285 192 11 0 22 4 25 9 3 5 18 12 33 15 157 39 265 44 387 20z"/>
 <path d="M6805 1931 c-7 -12 12 -24 25 -16 11 7 4 25 -10 25 -5 0 -11 -4 -15 -9z"/>
 </g>
<g id="layer103" fill="#183346" stroke="none">
 <path d="M8003 13987 c-2 -4 -95 -7 -206 -7 -215 1 -260 -2 -347 -27 -106 -29 -173 -69 -339 -202 -191 -154 -217 -174 -271 -209 -152 -100 -180 -99 -510 17 -63 22 -141 43 -173 47 -31 4 -60 11 -63 15 -7 12 -40 11 -62 0 -9 -5 -39 -13 -67 -19 -48 -10 -206 -65 -291 -103 -23 -10 -54 -21 -70 -25 -15 -4 -39 -13 -53 -20 -14 -8 -34 -14 -43 -14 -9 0 -20 -4 -23 -10 -3 -5 -19 -10 -35 -10 -16 0 -31 -4 -34 -9 -3 -4 -47 -23 -98 -42 -51 -18 -104 -39 -118 -46 -14 -7 -28 -13 -32 -13 -17 0 -257 -115 -358 -171 -156 -87 -221 -143 -351 -299 -29 -36 -96 -110 -149 -165 -142 -148 -219 -247 -278 -357 -42 -79 -62 -148 -78 -272 -13 -99 -13 -119 1 -191 9 -44 23 -94 31 -112 8 -17 14 -34 14 -38 0 -4 31 -70 69 -148 77 -159 108 -241 116 -307 3 -25 8 -52 10 -61 3 -9 7 -33 10 -55 2 -21 10 -86 16 -144 7 -58 13 -215 13 -350 -1 -268 -5 -303 -64 -465 -97 -267 -127 -441 -110 -634 21 -241 123 -426 324 -586 90 -71 227 -131 376 -163 37 -8 268 -7 320 1 25 4 54 11 65 16 11 5 42 18 70 27 53 20 89 37 145 72 42 26 242 229 288 292 18 25 53 72 77 105 50 69 140 239 179 340 16 39 34 84 41 100 8 17 21 57 30 90 32 117 53 201 60 240 4 22 9 47 11 55 31 147 33 172 40 448 l7 233 806 -5 c443 -2 822 -6 841 -9 112 -17 238 -27 415 -31 110 -3 236 -10 280 -16 44 -6 152 -13 240 -15 88 -2 205 -8 260 -15 55 -6 165 -13 245 -16 80 -3 179 -10 220 -15 117 -17 134 -18 495 -28 187 -6 374 -14 415 -18 95 -9 672 -10 765 0 39 4 135 11 215 17 173 11 184 13 234 34 121 51 261 182 325 305 45 86 83 188 101 271 7 30 16 67 20 81 4 14 7 93 5 175 -3 193 -18 258 -104 434 -60 124 -163 230 -311 319 -56 34 -103 61 -105 61 -2 0 -28 11 -57 23 -94 42 -162 67 -213 78 -27 5 -70 15 -95 21 -31 8 -337 12 -990 14 -938 2 -1020 4 -1155 24 -38 6 -182 13 -320 16 -137 3 -252 7 -253 9 -2 2 3 18 12 37 76 165 155 490 160 658 3 108 -29 281 -69 375 -7 17 -16 41 -20 55 -11 36 -127 198 -172 241 -21 19 -58 51 -83 70 -41 32 -49 34 -118 34 -41 0 -76 -4 -79 -8z"/>
 <path d="M13185 9320 c-4 -6 -10 -8 -15 -5 -5 3 -11 1 -14 -4 -4 -5 -2 -12 3 -15 5 -4 12 -2 16 4 4 6 10 8 15 5 5 -3 11 -1 14 4 4 5 2 12 -3 15 -5 4 -12 2 -16 -4z"/>
 <path d="M10279 7396 c-1 -3 -2 -9 -3 -13 -1 -5 -5 -13 -9 -20 -4 -6 -3 -14 3 -18 5 -3 11 -4 11 -1 1 3 2 9 3 14 1 4 5 12 9 19 4 6 3 14 -3 18 -5 3 -11 4 -11 1z"/>
 <path d="M9095 7220 c-3 -5 0 -13 9 -16 21 -8 61 -1 61 11 0 14 -62 19 -70 5z"/>
 <path d="M9825 7161 c-7 -12 12 -24 25 -16 11 7 4 25 -10 25 -5 0 -11 -4 -15 -9z"/>
 <path d="M6175 7121 c-7 -12 12 -24 25 -16 11 7 4 25 -10 25 -5 0 -11 -4 -15 -9z"/>
 <path d="M11105 5220 c-8 -12 20 -24 35 -15 6 3 8 11 5 16 -8 12 -32 12 -40 -1z"/>
 <path d="M11375 5221 c-7 -12 12 -24 25 -16 11 7 4 25 -10 25 -5 0 -11 -4 -15 -9z"/>
 <path d="M3825 4610 c-4 -6 -10 -8 -15 -5 -5 3 -11 1 -14 -4 -4 -5 -2 -12 3 -15 5 -4 12 -2 16 4 4 6 10 8 15 5 5 -3 11 -1 14 4 4 5 2 12 -3 15 -5 4 -12 2 -16 -4z"/>
 <path d="M8779 4056 c-1 -3 -2 -9 -3 -13 -1 -5 -5 -13 -9 -20 -4 -6 -3 -14 3 -18 5 -3 11 -4 11 -1 1 3 2 9 3 14 1 4 5 12 9 19 4 6 3 14 -3 18 -5 3 -11 4 -11 1z"/>
 <path d="M6805 1931 c-7 -12 12 -24 25 -16 11 7 4 25 -10 25 -5 0 -11 -4 -15 -9z"/>
 </g>

</svg>